# xmcd CD database file
#
# Track frame offsets:
#	150
#	4465
#	11031
#	20801
#	29135
#	42516
#	54472
#	65033
#	78409
#	88278
#	97195
#	107964
#
# Disc length: 1588 seconds
#
# Revision: 0
# Processed by: cddbd v1.5.2PL0 Copyright (c) Steve Scherf et al.
# Submitted via: CDex 1.70beta2
#
DISCID=b006320c
DTITLE=Duck Baker - Blues Guitar 101
DYEAR=2004
DGENRE=Blues
TTITLE0=E Blues Line #1
TTITLE1=E Blues Line #2
TTITLE2=Baby Let Me Follow You Down
TTITLE3=Blues in A
TTITLE4=The Jackson Stomp
TTITLE5=Make Me A Pallet On Your Floor
TTITLE6=Sister Kate
TTITLE7=Seven Point One
TTITLE8=Still Staggerin
TTITLE9=The Dirtman Cometh
TTITLE10=The Deep Blue C
TTITLE11=The Mighty Midget
EXTD=YEAR: 2004
EXTT0=
EXTT1=
EXTT2=
EXTT3=
EXTT4=
EXTT5=
EXTT6=
EXTT7=
EXTT8=
EXTT9=
EXTT10=
EXTT11=
PLAYORDER=
